<svg width="41" height="43" viewBox="0 0 41 43" fill="none" xmlns="http://www.w3.org/2000/svg">
<path d="M20.4244 0.00387253C17.5259 -0.0979058 15.2814 1.82981 12.8509 3.0411C9.54525 4.92738 6.14121 6.66749 2.90134 8.65156C0.782203 10.3096 -0.191449 12.9776 0.0310923 15.554C0.0434307 20.1221 0.00650551 24.6912 0.0497349 29.2585C0.324151 32.0241 2.31631 34.3711 4.87981 35.5281C8.99506 37.8016 13.0862 40.1174 17.2165 42.3645C19.8421 43.517 22.9504 43.0323 25.2731 41.473C29.3763 39.1787 33.5049 36.925 37.5919 34.6052C39.943 32.9939 41.059 30.1598 40.8177 27.4443C40.8054 22.8762 40.8424 18.3071 40.7991 13.7398C40.5244 10.9744 38.5326 8.62685 35.9688 7.47045C31.8535 5.19734 27.7617 2.88305 23.6315 0.635782C22.6319 0.18879 21.5214 0.00682008 20.4245 0.0037858L20.4244 0.00387253ZM17.8401 11.5072H23.0096V31.4919H17.8401V11.5072ZM24.3453 15.857H29.5123V31.4919H24.3453V15.857ZM11.3358 24.0131H16.5044V31.4919H11.3358V24.0131V24.0131Z" fill="#AC4800"/>
</svg>
